<svg width="540" height="540" viewBox="0 0 540 540" fill="none" xmlns="http://www.w3.org/2000/svg">
<g clip-path="url(#clip0_1459_2)">
<path d="M362.3 486.63C480.845 435.163 535.211 297.345 483.732 178.807C432.253 60.2677 294.422 5.89527 175.878 57.3624C57.3334 108.83 2.96651 246.647 54.4457 365.186C105.925 483.725 243.756 538.097 362.3 486.63Z" fill="#161D37"/>
<path d="M451.821 125.772C429.837 98.294 401.938 76.126 370.2 60.9176C338.463 45.7096 303.704 37.8534 268.51 37.9339L269.07 271.907L451.821 125.772Z" fill="url(#paint0_linear_1459_2)"/>
<path d="M269.678 37.9342C234.485 37.8391 199.724 45.6809 167.983 60.8759C136.242 76.071 108.338 98.228 86.3486 125.697L269.07 271.907L269.678 37.9342Z" fill="url(#paint1_linear_1459_2)"/>
<path d="M86.4264 125.601C64.8854 152.481 49.5473 183.785 41.5067 217.277C33.4661 250.77 32.9213 285.625 39.9114 319.354L269.07 271.907L86.4264 125.601Z" fill="url(#paint2_linear_1459_2)"/>
<path d="M39.7148 318.396C46.0199 349.473 58.5773 378.944 76.6243 405.021C94.6713 431.098 117.831 453.236 144.698 470.091L269.07 271.907L39.7148 318.396Z" fill="url(#paint3_linear_1459_2)"/>
<path d="M143.729 469.48C173.449 488.328 207.038 500.232 241.995 504.306C276.952 508.381 312.377 504.52 345.634 493.012L269.07 271.907L143.729 469.48Z" fill="url(#paint4_linear_1459_2)"/>
<path d="M344.718 493.327C382.267 480.508 415.938 458.354 442.567 428.947C469.196 399.541 487.909 363.847 496.946 325.221L269.07 271.907L344.718 493.327Z" fill="url(#paint5_linear_1459_2)"/>
<path d="M496.949 325.206C505.253 289.704 505.143 252.752 496.628 217.298C488.112 181.843 471.426 148.869 447.902 121.005L269.07 271.907L496.949 325.206Z" fill="url(#paint6_linear_1459_2)"/>
<path d="M191.267 292.822C193.881 292.298 195.604 289.788 195.157 287.155C194.69 284.407 192.047 282.586 189.319 283.133L45.292 312.017C42.6781 312.541 40.9556 315.051 41.4026 317.683C41.8692 320.432 44.5122 322.253 47.2409 321.705L191.267 292.822Z" fill="url(#paint7_linear_1459_2)" stroke="#1D2123" stroke-width="2" stroke-linejoin="round"/>
<path d="M263.523 194.137C263.527 196.807 265.649 198.992 268.314 199.07C271.097 199.152 273.394 196.914 273.39 194.126L273.155 47.0009C273.151 44.3307 271.029 42.146 268.364 42.0678C265.581 41.9862 263.284 44.2243 263.288 47.0117L263.523 194.137Z" fill="url(#paint8_linear_1459_2)" stroke="#1D2123" stroke-width="2" stroke-linejoin="round"/>
<path d="M327.634 216.273C325.601 217.998 325.308 221.028 326.974 223.114C328.713 225.293 331.906 225.605 334.029 223.804L446.07 128.749C448.104 127.024 448.396 123.994 446.731 121.907C444.992 119.729 441.798 119.417 439.675 121.218L327.634 216.273Z" fill="url(#paint9_linear_1459_2)" stroke="#1D2123" stroke-width="2" stroke-linejoin="round"/>
<path d="M347.531 284.322C344.918 283.695 342.282 285.272 341.596 287.872C340.887 290.559 342.525 293.303 345.225 293.95L488.858 328.4C491.471 329.027 494.106 327.45 494.793 324.85C495.502 322.163 493.863 319.419 491.164 318.772L347.531 284.322Z" fill="url(#paint10_linear_1459_2)" stroke="#1D2123" stroke-width="2" stroke-linejoin="round"/>
<path d="M299.42 345.985C298.56 343.457 295.85 342.067 293.301 342.847C290.64 343.661 289.181 346.518 290.079 349.157L337.469 488.465C338.329 490.993 341.039 492.383 343.588 491.603C346.25 490.789 347.708 487.932 346.811 485.293L299.42 345.985Z" fill="url(#paint11_linear_1459_2)" stroke="#1D2123" stroke-width="2" stroke-linejoin="round"/>
<path d="M229.836 341.778C231.268 339.527 230.651 336.545 228.443 335.046C226.138 333.481 222.996 334.13 221.502 336.48L142.634 460.531C141.203 462.782 141.82 465.764 144.027 467.263C146.332 468.828 149.474 468.179 150.968 465.828L229.836 341.778Z" fill="url(#paint12_linear_1459_2)" stroke="#1D2123" stroke-width="2" stroke-linejoin="round"/>
<path d="M203.482 225.508C205.582 227.188 208.639 226.886 210.367 224.827C212.151 222.7 211.835 219.521 209.666 217.785L94.2581 125.425C92.1581 123.744 89.1011 124.047 87.3731 126.105C85.5891 128.232 85.9051 131.412 88.0741 133.148L203.482 225.508Z" fill="url(#paint13_linear_1459_2)" stroke="#1D2123" stroke-width="2" stroke-linejoin="round"/>
<path opacity="0.3" d="M483.694 178.879C535.15 297.428 480.764 435.254 362.221 486.721C243.677 538.188 105.865 483.807 54.4083 365.257C2.95226 246.708 57.3377 108.882 175.882 57.4153C294.426 5.94838 432.238 60.3295 483.694 178.879ZM66.9047 359.832C115.365 471.48 245.154 522.695 356.796 474.224C468.439 425.754 519.658 295.952 471.198 184.304C422.737 72.6562 292.948 21.4412 181.306 69.9122C69.6627 118.382 18.4439 248.184 66.9047 359.832Z" fill="#1D2123"/>
</g>
<defs>
<linearGradient id="paint0_linear_1459_2" x1="296.524" y1="218.513" x2="357.804" y2="63.9169" gradientUnits="userSpaceOnUse">
<stop offset="0.59668" stop-color="white"/>
<stop offset="1" stop-color="white"/>
</linearGradient>
<linearGradient id="paint1_linear_1459_2" x1="215.138" y1="234.864" x2="90.4996" y2="137.742" gradientUnits="userSpaceOnUse">
<stop stop-color="#C80E47"/>
<stop offset="1" stop-color="#6E0B44"/>
</linearGradient>
<linearGradient id="paint2_linear_1459_2" x1="296.524" y1="218.513" x2="357.804" y2="63.9169" gradientUnits="userSpaceOnUse">
<stop offset="0.59668" stop-color="#F10C00"/>
<stop offset="1" stop-color="#780400"/>
</linearGradient>
<linearGradient id="paint3_linear_1459_2" x1="234.002" y1="299.949" x2="86.3484" y2="418.077" gradientUnits="userSpaceOnUse">
<stop stop-color="#45EC0F"/>
<stop offset="1" stop-color="#164A06"/>
</linearGradient>
<linearGradient id="paint4_linear_1459_2" x1="263.254" y1="317.003" x2="240.727" y2="492.321" gradientUnits="userSpaceOnUse">
<stop stop-color="#00FFF0"/>
<stop offset="1" stop-color="#004959"/>
</linearGradient>
<linearGradient id="paint5_linear_1459_2" x1="269.07" y1="271.907" x2="500.227" y2="270.578" gradientUnits="userSpaceOnUse">
<stop offset="0.375" stop-color="#322EA0"/>
<stop offset="1" stop-color="#090D53"/>
</linearGradient>
<linearGradient id="paint6_linear_1459_2" x1="269.07" y1="271.907" x2="507.592" y2="251.343" gradientUnits="userSpaceOnUse">
<stop offset="0.114485" stop-color="#8D0FDA"/>
<stop offset="1" stop-color="#180026"/>
</linearGradient>
<linearGradient id="paint7_linear_1459_2" x1="60.6867" y1="274.5" x2="175.973" y2="330.13" gradientUnits="userSpaceOnUse">
<stop stop-color="#FFE5C3"/>
<stop offset="0.197927" stop-color="#FEDF56"/>
<stop offset="0.447134" stop-color="#924E06"/>
<stop offset="0.726945" stop-color="#BD6908"/>
<stop offset="1" stop-color="#FFA232"/>
</linearGradient>
<linearGradient id="paint8_linear_1459_2" x1="306.895" y1="69.49" x2="229.628" y2="171.53" gradientUnits="userSpaceOnUse">
<stop stop-color="#FFE5C3"/>
<stop offset="0.197927" stop-color="#FEDF56"/>
<stop offset="0.447134" stop-color="#924E06"/>
<stop offset="0.726945" stop-color="#BD6908"/>
<stop offset="1" stop-color="#FFA232"/>
</linearGradient>
<linearGradient id="paint9_linear_1459_2" x1="450.76" y1="169.029" x2="322.954" y2="176.156" gradientUnits="userSpaceOnUse">
<stop stop-color="#FFE5C3"/>
<stop offset="0.197927" stop-color="#FEDF56"/>
<stop offset="0.447134" stop-color="#924E06"/>
<stop offset="0.726945" stop-color="#BD6908"/>
<stop offset="1" stop-color="#FFA232"/>
</linearGradient>
<linearGradient id="paint10_linear_1459_2" x1="459.26" y1="356.101" x2="377.04" y2="256.694" gradientUnits="userSpaceOnUse">
<stop stop-color="#FFE5C3"/>
<stop offset="0.197927" stop-color="#FEDF56"/>
<stop offset="0.447134" stop-color="#924E06"/>
<stop offset="0.726945" stop-color="#BD6908"/>
<stop offset="1" stop-color="#FFA232"/>
</linearGradient>
<linearGradient id="paint11_linear_1459_2" x1="298.303" y1="477.969" x2="338.809" y2="356.555" gradientUnits="userSpaceOnUse">
<stop stop-color="#FFE5C3"/>
<stop offset="0.197927" stop-color="#FEDF56"/>
<stop offset="0.447134" stop-color="#924E06"/>
<stop offset="0.726945" stop-color="#BD6908"/>
<stop offset="1" stop-color="#FFA232"/>
</linearGradient>
<linearGradient id="paint12_linear_1459_2" x1="126.241" y1="423.442" x2="246.216" y2="378.831" gradientUnits="userSpaceOnUse">
<stop stop-color="#FFE5C3"/>
<stop offset="0.197927" stop-color="#FEDF56"/>
<stop offset="0.447134" stop-color="#924E06"/>
<stop offset="0.726945" stop-color="#BD6908"/>
<stop offset="1" stop-color="#FFA232"/>
</linearGradient>
<linearGradient id="paint13_linear_1459_2" x1="132.841" y1="112.991" x2="164.815" y2="237.963" gradientUnits="userSpaceOnUse">
<stop stop-color="#FFE5C3"/>
<stop offset="0.197927" stop-color="#FEDF56"/>
<stop offset="0.447134" stop-color="#924E06"/>
<stop offset="0.726945" stop-color="#BD6908"/>
<stop offset="1" stop-color="#FFA232"/>
</linearGradient>
<clipPath id="clip0_1459_2">
<rect width="540" height="540" fill="white"/>
</clipPath>
</defs>
</svg>
